<svg xmlns="http://www.w3.org/2000/svg" width="11.097" height="6.995" viewBox="0 0 11.097 6.995"><g transform="translate(0 -82.226)"><path d="M10.834,83.024l-.534-.534a.912.912,0,0,0-.648-.263.873.873,0,0,0-.641.263L5.549,85.951,2.087,82.49a.873.873,0,0,0-.641-.263A.912.912,0,0,0,.8,82.49l-.527.534A.884.884,0,0,0,0,83.672a.847.847,0,0,0,.271.641L4.908,88.95a.847.847,0,0,0,.641.271A.884.884,0,0,0,6.2,88.95l4.637-4.637a.873.873,0,0,0,.264-.641A.912.912,0,0,0,10.834,83.024Z" transform="translate(0)"/></g></svg>