<svg xmlns="http://www.w3.org/2000/svg" width="65.505" height="65.507" viewBox="0 0 65.505 65.507"><g transform="translate(-0.5 0.001)"><path d="M338.619,155.148a1.279,1.279,0,1,0,1.279,1.279A1.279,1.279,0,0,0,338.619,155.148Zm0,0" transform="translate(-293.743 -135.298)" fill="#fff"/><path d="M156.924,336.84a1.279,1.279,0,1,0,1.279,1.279A1.279,1.279,0,0,0,156.924,336.84Zm0,0" transform="translate(-135.295 -293.744)" fill="#fff"/><path d="M64.416,7.87a1.278,1.278,0,0,0-1.2.345l-5.3,5.346H55.371l-2.8-2.9V8.083L57.8,2.777a1.28,1.28,0,0,0-.5-2.11A12.8,12.8,0,0,0,40.85,16.109l-9.424,9.424L15.725,9.8V6.707a1.279,1.279,0,0,0-.621-1.1L6.057.182A1.278,1.278,0,0,0,4.494.374L.876,3.992A1.281,1.281,0,0,0,.683,5.555L6.111,14.6a1.279,1.279,0,0,0,1.1.621H10.3L26,30.961,16.609,40.35A12.8,12.8,0,0,0,1.167,56.8a1.279,1.279,0,0,0,2.121.493l5.3-5.346h2.557l2.913,2.913v2.557l-5.346,5.3a1.279,1.279,0,0,0,.493,2.121,12.8,12.8,0,0,0,14.47-4.661A12.651,12.651,0,0,0,25.655,49.4l7.54-7.54,1.727,1.876-.793.792a1.28,1.28,0,0,0,1.81,1.81l.718-.718,16.206,17.6.037.038A7.677,7.677,0,0,0,63.758,52.4l-.04-.038L46.087,36.187l.71-.71a1.279,1.279,0,1,0-1.81-1.809l-.787.788L42.32,32.73,49.9,25.154A12.8,12.8,0,0,0,65.338,8.708a1.278,1.278,0,0,0-.923-.838ZM11.732,13.041a1.266,1.266,0,0,0-.905-.363H7.933L3.392,5.1,5.6,2.89l7.569,4.542v2.894a1.279,1.279,0,0,0,.374.9L29.617,27.343l-1.81,1.809ZM44.276,38,61.967,54.228a5.119,5.119,0,0,1-7.239,7.238L38.468,43.8Zm-1.887-1.732-5.655,5.654-1.727-1.876,5.5-5.5ZM53.211,23.029a10.225,10.225,0,0,1-3.27-.533,1.282,1.282,0,0,0-1.313.308L23.3,48.128A1.279,1.279,0,0,0,23,49.441a10.246,10.246,0,0,1-9.7,13.505,10.479,10.479,0,0,1-1.116-.06l4.064-4.032a1.279,1.279,0,0,0,.378-.908V54.327a1.279,1.279,0,0,0-.375-.9l-3.663-3.663a1.279,1.279,0,0,0-.9-.375H8.059a1.281,1.281,0,0,0-.909.378L3.118,53.826a10.35,10.35,0,0,1-.06-1.116,10.246,10.246,0,0,1,13.506-9.7,1.279,1.279,0,0,0,1.313-.308L43.2,17.376a1.279,1.279,0,0,0,.308-1.313,10.245,10.245,0,0,1,9.7-13.505,10.456,10.456,0,0,1,1.149.063L50.381,6.66a1.279,1.279,0,0,0-.368.9v3.619a1.278,1.278,0,0,0,.359.889l3.535,3.663a1.278,1.278,0,0,0,.921.391h3.619a1.279,1.279,0,0,0,.908-.378l4.032-4.063a10.351,10.351,0,0,1,.06,1.116A10.247,10.247,0,0,1,53.211,23.029Zm0,0" transform="translate(0 0)" fill="#fff"/><path d="M200.309,183.8,184.3,199.811a1.279,1.279,0,1,0,1.81,1.809l16.011-16.011a1.279,1.279,0,1,0-1.81-1.809Zm0,0" transform="translate(-159.956 -159.958)" fill="#fff"/><path d="M357.187,358.753a1.279,1.279,0,1,0,1.807-1.812l-11.532-11.5a1.279,1.279,0,0,0-1.807,1.812Zm0,0" transform="translate(-300.667 -300.923)" fill="#fff"/></g></svg>