<svg xmlns="http://www.w3.org/2000/svg" width="60" height="60" viewBox="0 0 60 60"><path d="M141.04,156.541a15.236,15.236,0,1,1,4.891-29.665,1.172,1.172,0,1,1-.751,2.22,12.89,12.89,0,1,0,7.971,7.789,1.172,1.172,0,0,1,2.2-.8,15.3,15.3,0,0,1-3.542,16A15.134,15.134,0,0,1,141.04,156.541Zm0,0" transform="translate(-111.069 -111.298)" fill="#0174df"/><path d="M35.156,60H24.844a1.172,1.172,0,0,1-1.172-1.172V53.821a24.419,24.419,0,0,1-6.042-2.5l-3.54,3.54a1.171,1.171,0,0,1-1.657,0L5.141,47.567a1.171,1.171,0,0,1,0-1.657l3.54-3.54a24.416,24.416,0,0,1-2.5-6.042H1.172A1.172,1.172,0,0,1,0,35.156V24.844a1.172,1.172,0,0,1,1.172-1.172H6.187a24.417,24.417,0,0,1,2.5-6.031L5.141,14.09a1.171,1.171,0,0,1,0-1.657l7.292-7.292a1.171,1.171,0,0,1,1.657,0l3.56,3.56a24.4,24.4,0,0,1,6.022-2.491V1.172A1.172,1.172,0,0,1,24.844,0H35.156a1.172,1.172,0,0,1,1.172,1.172V6.217a24.415,24.415,0,0,1,6.011,2.494l3.57-3.571a1.172,1.172,0,0,1,1.658,0l7.292,7.292a1.172,1.172,0,0,1,0,1.657l-3.571,3.57a24.417,24.417,0,0,1,2.494,6.012h5.045A1.172,1.172,0,0,1,60,24.844V35.156a1.172,1.172,0,0,1-1.172,1.172H53.791A24.406,24.406,0,0,1,51.3,42.351l3.56,3.56a1.171,1.171,0,0,1,0,1.657l-7.292,7.292a1.172,1.172,0,0,1-1.657,0l-3.551-3.551a24.425,24.425,0,0,1-6.031,2.5v5.015A1.172,1.172,0,0,1,35.156,60Zm-9.141-2.344h7.969V52.894a1.172,1.172,0,0,1,.915-1.144,22.1,22.1,0,0,0,7.009-2.911A1.172,1.172,0,0,1,43.365,49l3.373,3.373,5.635-5.635-3.381-3.381a1.171,1.171,0,0,1-.162-1.455,22.1,22.1,0,0,0,2.9-7,1.172,1.172,0,0,1,1.144-.916h4.785V26.016H52.864a1.172,1.172,0,0,1-1.143-.915,22.108,22.108,0,0,0-2.9-6.992,1.172,1.172,0,0,1,.161-1.456l3.392-3.392L46.739,7.627l-3.392,3.392a1.172,1.172,0,0,1-1.456.161,22.1,22.1,0,0,0-6.992-2.9,1.172,1.172,0,0,1-.915-1.143V2.344H26.016V7.129A1.171,1.171,0,0,1,25.1,8.273a22.1,22.1,0,0,0-7,2.9,1.171,1.171,0,0,1-1.455-.162L13.261,7.626,7.627,13.261,11,16.635a1.173,1.173,0,0,1,.161,1.457A22.1,22.1,0,0,0,8.249,25.1a1.172,1.172,0,0,1-1.143.915H2.344v7.969H7.1a1.172,1.172,0,0,1,1.144.916,22.087,22.087,0,0,0,2.907,7.02,1.172,1.172,0,0,1-.161,1.456L7.627,46.739l5.635,5.635,3.362-3.362a1.171,1.171,0,0,1,1.456-.161,22.1,22.1,0,0,0,7.02,2.907,1.172,1.172,0,0,1,.916,1.144v4.756Zm0,0" fill="#0174df"/><path d="M194.074,202.535a8.2,8.2,0,1,1,8.2-8.2A8.212,8.212,0,0,1,194.074,202.535Zm0-14.062a5.859,5.859,0,1,0,5.859,5.859A5.866,5.866,0,0,0,194.074,188.473Zm0,0" transform="translate(-164.089 -164.317)" fill="#0174df"/><path d="M331.537,163.383a1.172,1.172,0,0,1-.829-2l.057-.057a1.172,1.172,0,0,1,1.658,1.657l-.056.056A1.168,1.168,0,0,1,331.537,163.383Zm0,0" transform="translate(-291.65 -142.117)" fill="#0174df"/></svg>