<svg xmlns="http://www.w3.org/2000/svg" width="60" height="50.98" viewBox="0 0 60 50.98"><g transform="translate(0 -38.486)"><g transform="translate(0 38.486)"><g transform="translate(0 0)"><path d="M55.8,67.6l-1.554-6.215a.94.94,0,0,0,.744-.919v-1a3.95,3.95,0,0,0-3.946-3.946H43.967V53.454a1.944,1.944,0,0,0-1.942-1.942H28.866l8-3.2a.939.939,0,0,0-.7-1.745l-6.548,2.619a22.082,22.082,0,0,0,4.721-3.674,4.375,4.375,0,1,0-6.958-5.306c-1.069,1.4-2.479,5.341-3.392,8.116-.913-2.775-2.323-6.714-3.392-8.116a4.375,4.375,0,1,0-6.958,5.306,22.075,22.075,0,0,0,4.721,3.674L11.81,46.569a.939.939,0,0,0-.7,1.745l8,3.2H5.95a1.944,1.944,0,0,0-1.942,1.942V70.489a.939.939,0,0,0,1.879,0V53.454a.063.063,0,0,1,.063-.063H42.025a.063.063,0,0,1,.063.063V70.489a.939.939,0,1,0,1.879,0V69.424H55.055a3.074,3.074,0,0,1,2.919,2.129H55.052a.94.94,0,0,0-.939.939v2a2.947,2.947,0,0,0,2.944,2.944h1.065v4.134H55.665a5.948,5.948,0,0,0-11.246,0h-.452V74.5a.939.939,0,1,0-1.879,0v7.077H22.6a5.948,5.948,0,0,0-11.246,0H5.95a.063.063,0,0,1-.063-.063V79.445H9.958a.939.939,0,0,0,0-1.879H.939a.939.939,0,0,0,0,1.879H4.008v2.067A1.944,1.944,0,0,0,5.95,83.454h5.075c0,.021,0,.042,0,.063a5.95,5.95,0,0,0,11.9,0c0-.021,0-.042,0-.063H44.093c0,.021,0,.042,0,.063a5.95,5.95,0,0,0,11.9,0c0-.021,0-.042,0-.063h3.071A.94.94,0,0,0,60,82.514V72.493A4.955,4.955,0,0,0,55.8,67.6ZM20.262,48.163c-3.706-2.3-4.805-3.362-5.13-3.789a2.5,2.5,0,0,1,3.97-3.027c.909,1.192,2.332,5.2,3.272,8.092C21.739,49.065,21.01,48.628,20.262,48.163ZM25.6,49.438c.94-2.89,2.363-6.9,3.272-8.092a2.5,2.5,0,0,1,3.97,3.028c-.325.427-1.425,1.486-5.13,3.789C26.965,48.628,26.237,49.065,25.6,49.438ZM43.967,57.4h7.077a2.069,2.069,0,0,1,2.067,2.067v.063H43.967Zm0,10.146V61.408h8.348l1.534,6.138ZM16.973,87.587a4.071,4.071,0,1,1,4.071-4.071A4.076,4.076,0,0,1,16.973,87.587Zm33.069,0a4.071,4.071,0,1,1,4.071-4.071A4.076,4.076,0,0,1,50.042,87.587Zm8.079-12.025H57.056A1.066,1.066,0,0,1,55.992,74.5V73.433h2.129v2.13Z" transform="translate(0 -38.486)" fill="#0174df"/></g></g><g transform="translate(15.031 81.575)"><path d="M130.209,406.172a1.942,1.942,0,1,0,1.942,1.942A1.944,1.944,0,0,0,130.209,406.172Z" transform="translate(-128.267 -406.172)" fill="#0174df"/></g><g transform="translate(48.1 81.575)"><path d="M412.4,406.172a1.942,1.942,0,1,0,1.942,1.942A1.944,1.944,0,0,0,412.4,406.172Z" transform="translate(-410.455 -406.172)" fill="#0174df"/></g><g transform="translate(24.05 77.566)"><path d="M220.2,371.967H206.167a.939.939,0,0,0,0,1.879H220.2a.939.939,0,1,0,0-1.879Z" transform="translate(-205.227 -371.967)" fill="#0174df"/></g><g transform="translate(2.004 73.558)"><g transform="translate(0 0)"><path d="M30.067,337.763H18.041a.939.939,0,0,0,0,1.879H30.067a.939.939,0,0,0,0-1.879Z" transform="translate(-17.102 -337.763)" fill="#0174df"/></g></g><g transform="translate(10.021 59.529)"><path d="M90.459,218.046H86.45a.94.94,0,0,0-.939.939V227a.939.939,0,1,0,1.879,0v-3.069h2.067a.939.939,0,1,0,0-1.879H87.39v-2.129h3.069a.939.939,0,1,0,0-1.879Z" transform="translate(-85.511 -218.046)" fill="#0174df"/></g><g transform="translate(17.035 59.529)"><path d="M150.7,224.374a3.443,3.443,0,0,0-1.882-6.328h-2.505a.94.94,0,0,0-.939.939V227a.939.939,0,1,0,1.879,0v-2.067h1.564l1.725,2.588a.939.939,0,1,0,1.563-1.042Zm-1.882-1.317h-1.566v-3.131h1.566a1.566,1.566,0,1,1,0,3.131Z" transform="translate(-145.369 -218.046)" fill="#0174df"/></g><g transform="translate(25.052 59.529)"><path d="M218.726,226.063h-3.069V223.93c.021,0,.041,0,.063,0h2a.939.939,0,1,0,0-1.879h-2c-.021,0-.042,0-.063,0v-2.133h3.069a.939.939,0,1,0,0-1.879h-4.008a.94.94,0,0,0-.939.939V227a.94.94,0,0,0,.939.939h4.008a.939.939,0,1,0,0-1.879Z" transform="translate(-213.778 -218.046)" fill="#0174df"/></g><g transform="translate(32.067 59.529)"><path d="M278.584,226.063h-3.069v-2.129h1.065a.939.939,0,0,0,0-1.879h-1.065v-2.129h3.069a.939.939,0,0,0,0-1.879h-4.008a.939.939,0,0,0-.939.939V227a.94.94,0,0,0,.939.939h4.008a.939.939,0,1,0,0-1.879Z" transform="translate(-273.636 -218.046)" fill="#0174df"/></g></g></svg>