<svg xmlns="http://www.w3.org/2000/svg" width="60.926" height="74.272" viewBox="0 0 60.926 74.272"><g transform="translate(0 0)"><path d="M54.228,24.748l3.123-3.123A4.351,4.351,0,0,0,51.2,15.471l-3.334,3.334a30.469,30.469,0,0,0-11.6-4.9V9.575h2.9a1.451,1.451,0,0,0,1.451-1.451V4.352A4.357,4.357,0,0,0,36.265,0H24.66a4.357,4.357,0,0,0-4.352,4.352V8.124a1.451,1.451,0,0,0,1.451,1.451h2.9V13.9a30.464,30.464,0,0,0-11.6,4.9L9.729,15.471a4.351,4.351,0,1,0-6.154,6.154L6.7,24.748a30.463,30.463,0,1,0,47.53,0Zm-.98-7.226A1.45,1.45,0,0,1,55.3,19.574l-3,3q-1.013-1.04-2.12-1.981ZM23.21,4.352A1.452,1.452,0,0,1,24.66,2.9H36.265a1.452,1.452,0,0,1,1.451,1.451V6.673H23.21ZM33.364,9.575v3.909a31.209,31.209,0,0,0-5.8,0V9.575ZM5.627,17.522a1.453,1.453,0,0,1,2.051,0l3.067,3.067q-1.1.939-2.12,1.981l-3-3a1.453,1.453,0,0,1,0-2.051ZM30.463,71.371a27.565,27.565,0,0,1-4.137-54.817,28.007,28.007,0,0,1,8.273,0,27.543,27.543,0,0,1,12.537,5.3,27.824,27.824,0,0,1,4.036,3.761A27.563,27.563,0,0,1,30.463,71.371Zm0,0" fill="#0174df"/><path d="M184.352,212.309a4.352,4.352,0,0,0,1.451-8.454v-10.4a1.451,1.451,0,1,0-2.9,0v10.4a4.352,4.352,0,0,0,1.451,8.454Zm0-5.8a1.451,1.451,0,1,1-1.451,1.451A1.452,1.452,0,0,1,184.352,206.506Zm0,0" transform="translate(-153.889 -164.148)" fill="#0174df"/><path d="M97.212,163.327c-.023-.027-.045-.053-.071-.078s-.056-.053-.085-.078a21.838,21.838,0,0,0-9.143-5.413,1.451,1.451,0,1,0-.822,2.782,18.906,18.906,0,0,1,6.928,3.778l-.979.979a1.451,1.451,0,1,0,2.052,2.052l.981-.981a18.681,18.681,0,0,1,4.487,10.813h-1.4a1.451,1.451,0,1,0,0,2.9h1.4a18.68,18.68,0,0,1-4.487,10.813l-.981-.981a1.451,1.451,0,1,0-2.052,2.052l.981.981a18.686,18.686,0,0,1-10.813,4.488v-1.4a1.451,1.451,0,0,0-2.9,0v1.4A18.681,18.681,0,0,1,69.5,192.946l.981-.981a1.451,1.451,0,1,0-2.052-2.052l-.981.981a18.681,18.681,0,0,1-4.487-10.813h1.4a1.451,1.451,0,1,0,0-2.9h-1.4a18.681,18.681,0,0,1,4.487-10.813l.981.981a1.451,1.451,0,1,0,2.052-2.052l-.979-.979a18.9,18.9,0,0,1,6.928-3.778,1.451,1.451,0,1,0-.822-2.782,21.831,21.831,0,0,0-9.141,5.411c-.03.025-.06.052-.087.079s-.047.051-.07.077a21.724,21.724,0,0,0,0,30.61c.023.027.045.053.071.078s.051.048.077.07a21.725,21.725,0,0,0,30.609,0c.027-.023.053-.046.078-.071s.047-.051.07-.077a21.724,21.724,0,0,0,0-30.61Zm0,0" transform="translate(-51.296 -134.821)" fill="#0174df"/><path d="M201.451,154.9A1.451,1.451,0,1,0,200,153.451,1.451,1.451,0,0,0,201.451,154.9Zm0,0" transform="translate(-170.988 -129.95)" fill="#0174df"/></g></svg>