<svg xmlns="http://www.w3.org/2000/svg" width="19.731" height="19.731" viewBox="0 0 19.731 19.731"><g transform="translate(-445.894 -284)"><g transform="translate(445.894 284)"><path d="M9.868,0h0A9.859,9.859,0,0,0,1.878,15.648L.649,19.313,4.441,18.1A9.864,9.864,0,1,0,9.868,0Zm5.74,13.931a2.784,2.784,0,0,1-1.936,1.392c-.515.11-1.189.2-3.455-.742a12.359,12.359,0,0,1-4.912-4.338A5.635,5.635,0,0,1,4.134,7.267a3.15,3.15,0,0,1,1.009-2.4,1.433,1.433,0,0,1,1.009-.354c.122,0,.232.006.33.011.29.012.435.03.626.487.238.573.818,1.989.887,2.135a.587.587,0,0,1,.042.534,1.7,1.7,0,0,1-.319.453c-.146.168-.284.3-.429.476-.133.157-.284.324-.116.614a8.757,8.757,0,0,0,1.6,1.989,7.253,7.253,0,0,0,2.313,1.427.624.624,0,0,0,.7-.11,11.936,11.936,0,0,0,.771-1.021.551.551,0,0,1,.708-.215c.266.092,1.676.789,1.966.934s.481.215.551.337A2.457,2.457,0,0,1,15.608,13.931Z" fill="#00a41b"/></g></g></svg>