<svg xmlns="http://www.w3.org/2000/svg" width="60" height="43" viewBox="0 0 60 43"><g transform="translate(0 -72.533)"><g transform="translate(8 103.533)"><g transform="translate(0 0)"><path d="M74.267,337.067a6,6,0,1,0,6,6A6.006,6.006,0,0,0,74.267,337.067Zm0,10a4,4,0,1,1,4-4A4,4,0,0,1,74.267,347.067Z" transform="translate(-68.267 -337.067)" fill="#0174df"/></g></g><g transform="translate(42 103.533)"><g transform="translate(0 0)"><path d="M364.4,337.067a6,6,0,1,0,6,6A6.006,6.006,0,0,0,364.4,337.067Zm0,10a4,4,0,1,1,4-4A4,4,0,0,1,364.4,347.067Z" transform="translate(-358.4 -337.067)" fill="#0174df"/></g></g><g transform="translate(38 83.533)"><g transform="translate(0 0)"><path d="M346.108,180.859l-9-14a1,1,0,0,0-.841-.459h-11a1,1,0,0,0-1,1v25a1,1,0,0,0,1,1h4v-2h-3v-23h9.454l8.546,13.294V191.4h-5v2h6a1,1,0,0,0,1-1v-11A1,1,0,0,0,346.108,180.859Z" transform="translate(-324.267 -166.4)" fill="#0174df"/></g></g><g transform="translate(42 87.533)"><g transform="translate(0 0)"><path d="M360.4,209.533v-7h8v-2h-9a1,1,0,0,0-1,1v9a1,1,0,0,0,1,1h15v-2h-14Z" transform="translate(-358.401 -200.533)" fill="#0174df"/></g></g><g transform="translate(0 76.533)"><g transform="translate(0 0)"><path d="M39,106.667H1a1,1,0,0,0-1,1v32a1,1,0,0,0,1,1H9v-2H2v-30H38v30H19v2H39a1,1,0,0,0,1-1v-32A1,1,0,0,0,39,106.667Z" transform="translate(0 -106.667)" fill="#0174df"/></g></g><g transform="translate(1 104.533)"><rect width="6" height="2" fill="#0174df"/></g><g transform="translate(21 104.533)"><rect width="17" height="2" fill="#0174df"/></g><g transform="translate(55 104.533)"><rect width="4" height="2" fill="#0174df"/></g><g transform="translate(4 80.533)"><g transform="translate(0 0)"><rect width="35" height="2" fill="#0174df"/></g></g><g transform="translate(13 108.533)"><g transform="translate(0 0)"><rect width="2" height="2" fill="#0174df"/></g></g><g transform="translate(47 108.533)"><g transform="translate(0 0)"><rect width="2" height="2" fill="#0174df"/></g></g><g transform="translate(4 72.533)"><g transform="translate(0 0)"><rect width="14" height="2" fill="#0174df"/></g></g><g transform="translate(0 72.533)"><g transform="translate(0 0)"><rect width="2" height="2" fill="#0174df"/></g></g></g></svg>