<svg xmlns="http://www.w3.org/2000/svg" width="60" height="69.646" viewBox="0 0 60 69.646"><g transform="translate(-0.5 0)"><path d="M262.411,162.721a1.36,1.36,0,1,0-1.36-1.36A1.361,1.361,0,0,0,262.411,162.721Zm0,0" transform="translate(-225.11 -138.235)" fill="#0174df"/><path d="M162.411,162.721a1.36,1.36,0,1,0-1.36-1.36A1.361,1.361,0,0,0,162.411,162.721Zm0,0" transform="translate(-138.712 -138.235)" fill="#0174df"/><path d="M189.358,232.278a8.556,8.556,0,0,0,7.2.033,1.36,1.36,0,1,0-1.137-2.472,5.836,5.836,0,0,1-4.906-.022,1.36,1.36,0,0,0-1.16,2.461Zm0,0" transform="translate(-162.494 -198.443)" fill="#0174df"/><path d="M60.5,55.2c0-7.48-8.519-13.346-15.821-13.624l-3.725-3.347a17.746,17.746,0,0,0,7.291-14.284V14.963A15,15,0,0,0,33.234,0H27.793A14.914,14.914,0,0,0,12.878,14.963v8.978a17.777,17.777,0,0,0,7.2,14.258L16.32,41.572C9.034,41.849.5,47.7.5,55.2v13.09a1.36,1.36,0,0,0,1.36,1.36H59.139a1.36,1.36,0,0,0,1.36-1.36ZM27.487,60.668h6.019l1.426,6.257H26.019Zm6.136-2.721H27.4L26.357,54.7,30.5,52.625l4.232,2.117ZM30.5,48.538l-4.727-7.562a17.678,17.678,0,0,0,9.446.011Zm1.947,2.019,6.531-10.45L42.5,43.271,38.018,53.343ZM27.793,2.721h5.441a12.28,12.28,0,0,1,12.29,12.242v1.124L42.97,12.41a1.36,1.36,0,0,0-2.09-.175c-2.765,2.828-5.967,4.089-10.38,4.089s-7.615-1.261-10.382-4.089a1.36,1.36,0,0,0-2.1.184L15.6,15.971V14.963A12.232,12.232,0,0,1,27.793,2.721ZM15.6,23.941V20.8l3.778-5.536A16.3,16.3,0,0,0,30.5,19.044a16.287,16.287,0,0,0,11.132-3.791l3.892,5.6v3.083a14.963,14.963,0,1,1-29.926,0Zm6.423,16.166,6.532,10.45-5.572,2.786L18.5,43.271ZM3.22,55.2c0-5.6,6.812-10.442,12.765-10.882l5.089,11.435a1.36,1.36,0,0,0,1.851.664l.969-.485L25,59.364l-1.774,7.561h-20Zm54.559,11.73H37.722L36,59.385l1.183-3.417.887.444a1.36,1.36,0,0,0,1.851-.664l5.089-11.435c5.953.44,12.765,5.278,12.765,10.882Zm0,0" fill="#0174df"/><path d="M307.852,446h-5.441a1.36,1.36,0,0,0,0,2.721h5.441a1.36,1.36,0,1,0,0-2.721Zm0,0" transform="translate(-259.669 -385.332)" fill="#0174df"/><path d="M381.86,446a1.36,1.36,0,1,1-1.36,1.36A1.361,1.361,0,0,1,381.86,446Zm0,0" transform="translate(-328.31 -385.332)" fill="#0174df"/></g></svg>