<svg xmlns="http://www.w3.org/2000/svg" width="9.778" height="12" viewBox="0 0 9.778 12"><g transform="translate(-5)"><path d="M13.444,4.47V3.222A3.405,3.405,0,0,0,9.889,0,3.405,3.405,0,0,0,6.333,3.222V4.47A1.608,1.608,0,0,0,5,6.051v4.343A1.608,1.608,0,0,0,6.606,12h6.565a1.608,1.608,0,0,0,1.606-1.606V6.051A1.608,1.608,0,0,0,13.444,4.47ZM6.778,3.222A2.962,2.962,0,0,1,9.889.444,2.962,2.962,0,0,1,13,3.222V4.444H6.778Zm7.556,7.171a1.163,1.163,0,0,1-1.162,1.162H6.606a1.163,1.163,0,0,1-1.162-1.162V6.051A1.163,1.163,0,0,1,6.606,4.889h6.565a1.163,1.163,0,0,1,1.162,1.162Z"/><path d="M23.889,28a.89.89,0,0,0-.889.889v1.333a.889.889,0,0,0,1.778,0V28.889A.89.89,0,0,0,23.889,28Zm.444,2.222a.444.444,0,1,1-.889,0V28.889a.444.444,0,0,1,.889,0Z" transform="translate(-14 -21.778)"/></g></svg>