<svg xmlns="http://www.w3.org/2000/svg" width="12.883" height="20" viewBox="0 0 12.883 20"><g transform="translate(-84.128)"><path d="M95.745,0H85.394a1.268,1.268,0,0,0-1.266,1.266V18.734A1.268,1.268,0,0,0,85.394,20h10.35a1.268,1.268,0,0,0,1.266-1.266V1.266A1.268,1.268,0,0,0,95.745,0ZM84.762,3.182H96.376V16.409H84.762ZM85.394.635h10.35a.632.632,0,0,1,.632.632V2.759H84.762V1.266A.632.632,0,0,1,85.394.635Zm10.35,18.731H85.394a.632.632,0,0,1-.632-.632v-1.9H96.376v1.9A.632.632,0,0,1,95.745,19.365Z" fill="#c8d7d7"/><path d="M212.881,404.552a1.039,1.039,0,1,0,1.039,1.039A1.04,1.04,0,0,0,212.881,404.552Zm0,1.655a.616.616,0,1,1,.616-.616A.617.617,0,0,1,212.881,406.207Z" transform="translate(-122.312 -387.439)" fill="#c8d7d7"/><path d="M197.617,38.068h2.876a.212.212,0,0,0,0-.423h-2.876a.212.212,0,0,0,0,.423Z" transform="translate(-108.486 -36.053)" fill="#c8d7d7"/><path d="M179.62,38.068a.211.211,0,1,0-.15-.062A.213.213,0,0,0,179.62,38.068Z" transform="translate(-91.251 -36.053)" fill="#c8d7d7"/></g></svg>