<svg xmlns="http://www.w3.org/2000/svg" width="21.309" height="19.7" viewBox="0 0 21.309 19.7"><g transform="translate(0 -1.775)"><g transform="translate(0 1.775)"><g transform="translate(0 0)"><path d="M21.267,10.092a.448.448,0,0,0-.406-.258H19.534a9.843,9.843,0,1,0-1.153,6.718.9.9,0,0,0-1.55-.9,8.067,8.067,0,1,1,.87-5.821H16.385a.448.448,0,0,0-.345.734l2.239,2.686a.448.448,0,0,0,.688,0l2.239-2.686A.448.448,0,0,0,21.267,10.092Z" transform="translate(0 -1.775)" fill="#0174df"/><path d="M19.761,6.713a.852.852,0,0,0-.852.852v5.172a1.49,1.49,0,0,0,.853,2.713,1.473,1.473,0,0,0,.629-.144l2.965,1.711a.843.843,0,0,0,.426.115.852.852,0,0,0,.426-1.59L21.24,13.828a1.485,1.485,0,0,0-.625-1.09V7.565A.854.854,0,0,0,19.761,6.713Zm0,7.884a.639.639,0,1,1,.639-.639A.64.64,0,0,1,19.761,14.6Z" transform="translate(-9.804 -4.582)" fill="#0174df"/></g></g></g></svg>