<svg xmlns="http://www.w3.org/2000/svg" width="60" height="50.106" viewBox="0 0 60 50.106"><g transform="translate(0 -38.175)"><path d="M58.427,58.008A.972.972,0,0,0,60,57.244V52.061a.972.972,0,0,0-.37-.763L43.807,38.831a3.036,3.036,0,0,0-3.769,0l-5.955,4.692v-1.83a.972.972,0,0,0-.972-.972H28.963a.972.972,0,0,0-.972.972v6.628L24.215,51.3a.972.972,0,0,0-.37.763v5.184a.972.972,0,0,0,1.573.764l.5-.394v9.471l-9.066-7.143a3.036,3.036,0,0,0-3.769,0L.37,69.958a.972.972,0,0,0-.37.763v5.184a.972.972,0,0,0,1.573.763l.5-.394V86.337H.972a.972.972,0,0,0,0,1.944H59.028a.972.972,0,0,0,0-1.944h-1.1V57.614l.5.394ZM29.935,42.665h2.2v2.389l-2.2,1.736Zm-4.147,9.867L41.241,40.358a1.1,1.1,0,0,1,1.363,0L58.056,52.532v2.709L42.524,43a.972.972,0,0,0-1.2,0L25.788,55.241ZM1.944,71.193l12.342-9.724a1.1,1.1,0,0,1,1.363,0l10.269,8.09v2.709L15.569,64.115a.972.972,0,0,0-1.2,0L1.944,73.9Zm2.073,3.55,10.95-8.627,10.95,8.628V86.337H21.641V74.869a.972.972,0,0,0-.972-.972H9.266a.972.972,0,0,0-.972.972V86.337H4.017V74.743Zm6.22,5.244H19.7v2.2h-9.46Zm9.46-1.944h-9.46v-2.2H19.7Zm-9.46,6.091H19.7v2.2h-9.46Zm28.121-5.051c-.022,0-.043,0-.065,0a.972.972,0,0,0,0,1.944c.022,0,.043,0,.065,0v5.316H34.082V73.767h4.276Zm17.624,7.254H40.3V72.795a.972.972,0,0,0-.972-.972H33.11a.972.972,0,0,0-.972.972V86.337H27.862V56.082L41.922,45l14.06,11.078Z" fill="#0174df"/><path d="M336.972,308.063h6.22a.972.972,0,0,0,.972-.972V298.8a.972.972,0,0,0-.972-.972h-6.22a.972.972,0,0,0-.972.972v8.294A.972.972,0,0,0,336.972,308.063Zm.972-1.944v-3.24h4.276v3.24Zm4.276-6.35v1.166h-4.276v-1.166Z" transform="translate(-292.458 -226.002)" fill="#0174df"/><path d="M336.972,196.063h6.22a.972.972,0,0,0,.972-.972V186.8a.972.972,0,0,0-.972-.972h-6.22a.972.972,0,0,0-.972.972v8.294A.972.972,0,0,0,336.972,196.063Zm.972-1.944v-3.24h4.276v3.24Zm4.276-6.35v1.166h-4.276v-1.166Z" transform="translate(-292.458 -128.516)" fill="#0174df"/><path d="M255.192,185.825h-6.22a.972.972,0,0,0-.972.972v8.294a.972.972,0,0,0,.972.972h6.22a.972.972,0,0,0,.972-.972V186.8A.972.972,0,0,0,255.192,185.825Zm-.972,1.944v1.166h-4.276v-1.166Zm-4.276,6.35v-3.24h4.276v3.24Z" transform="translate(-215.862 -128.516)" fill="#0174df"/></g></svg>